<svg width="208" height="82" viewBox="0 0 208 82" fill="none" xmlns="http://www.w3.org/2000/svg">
<path d="M73.5625 34H68.9102V17.125H81.0273V19.2812H73.5625V24.4961H79.3281V26.6406H73.5625V34ZM94.0352 21.6602L91.8086 25.3516C91.7148 25.0391 91.5938 24.6875 91.4453 24.2969C91.2969 23.9062 91.1133 23.543 90.8945 23.207C90.6758 22.8633 90.4141 22.5781 90.1094 22.3516C89.8047 22.1172 89.4531 22 89.0547 22C88.6875 22 88.3672 22.0938 88.0938 22.2812C87.8281 22.4688 87.6016 22.7148 87.4141 23.0195C87.2266 23.3164 87.0703 23.6562 86.9453 24.0391C86.8281 24.4141 86.7344 24.7969 86.6641 25.1875C86.6016 25.5703 86.5586 25.9414 86.5352 26.3008C86.5117 26.6523 86.5 26.957 86.5 27.2148V34H82.5273V20.4648H84.0508L85.6562 23.6172C85.875 23.1094 86.125 22.6445 86.4062 22.2227C86.6875 21.793 87.0117 21.4258 87.3789 21.1211C87.7461 20.8086 88.1602 20.5664 88.6211 20.3945C89.0898 20.2227 89.6172 20.1367 90.2031 20.1367C90.5078 20.1367 90.8477 20.1641 91.2227 20.2188C91.5977 20.2656 91.9648 20.3516 92.3242 20.4766C92.6836 20.5938 93.0156 20.75 93.3203 20.9453C93.625 21.1406 93.8633 21.3789 94.0352 21.6602ZM98.6055 27.5781C99.0898 27.6875 99.5742 27.7734 100.059 27.8359C100.543 27.8984 101.031 27.9297 101.523 27.9297C102.039 27.9297 102.516 27.8828 102.953 27.7891C103.398 27.6875 103.781 27.5234 104.102 27.2969C104.43 27.0625 104.688 26.7539 104.875 26.3711C105.062 25.9883 105.156 25.5117 105.156 24.9414C105.156 24.4805 105.094 24.0586 104.969 23.6758C104.844 23.293 104.656 22.9648 104.406 22.6914C104.164 22.418 103.863 22.207 103.504 22.0586C103.145 21.9023 102.727 21.8242 102.25 21.8242C101.805 21.8242 101.402 21.9062 101.043 22.0703C100.691 22.2344 100.379 22.457 100.105 22.7383C99.8398 23.0117 99.6094 23.332 99.4141 23.6992C99.2266 24.0664 99.0703 24.4492 98.9453 24.8477C98.8203 25.2461 98.7305 25.6484 98.6758 26.0547C98.6211 26.4609 98.5938 26.8438 98.5938 27.2031C98.5938 27.2656 98.5938 27.3281 98.5938 27.3906C98.5938 27.4531 98.5977 27.5156 98.6055 27.5781ZM108.367 24.9062C108.367 25.4609 108.277 25.957 108.098 26.3945C107.918 26.8242 107.672 27.2031 107.359 27.5312C107.055 27.8594 106.699 28.1367 106.293 28.3633C105.887 28.5898 105.453 28.7773 104.992 28.9258C104.531 29.0664 104.055 29.168 103.562 29.2305C103.078 29.293 102.605 29.3242 102.145 29.3242C101.559 29.3242 100.98 29.2852 100.41 29.207C99.8398 29.1211 99.2773 28.9883 98.7227 28.8086C98.8086 29.3242 98.9453 29.8164 99.1328 30.2852C99.3203 30.7461 99.5703 31.1523 99.8828 31.5039C100.195 31.8477 100.578 32.1211 101.031 32.3242C101.492 32.5273 102.035 32.6289 102.66 32.6289C103.074 32.6289 103.469 32.5664 103.844 32.4414C104.219 32.3164 104.562 32.1406 104.875 31.9141C105.188 31.6875 105.461 31.418 105.695 31.1055C105.938 30.793 106.133 30.4453 106.281 30.0625L107.992 30.6953C107.734 31.3125 107.379 31.8477 106.926 32.3008C106.48 32.7461 105.973 33.1172 105.402 33.4141C104.84 33.7031 104.238 33.918 103.598 34.0586C102.965 34.1992 102.336 34.2695 101.711 34.2695C100.68 34.2695 99.7266 34.0977 98.8516 33.7539C97.9766 33.4023 97.2227 32.9141 96.5898 32.2891C95.957 31.6641 95.4609 30.918 95.1016 30.0508C94.7422 29.1836 94.5625 28.2344 94.5625 27.2031C94.5625 26.1719 94.7422 25.2227 95.1016 24.3555C95.4609 23.4883 95.957 22.7422 96.5898 22.1172C97.2227 21.4922 97.9766 21.0078 98.8516 20.6641C99.7266 20.3125 100.68 20.1367 101.711 20.1367C102.211 20.1367 102.723 20.1719 103.246 20.2422C103.77 20.3125 104.277 20.4258 104.77 20.582C105.262 20.7305 105.727 20.9258 106.164 21.168C106.602 21.4102 106.98 21.7109 107.301 22.0703C107.629 22.4219 107.887 22.832 108.074 23.3008C108.27 23.7695 108.367 24.3047 108.367 24.9062ZM114.098 27.5781C114.582 27.6875 115.066 27.7734 115.551 27.8359C116.035 27.8984 116.523 27.9297 117.016 27.9297C117.531 27.9297 118.008 27.8828 118.445 27.7891C118.891 27.6875 119.273 27.5234 119.594 27.2969C119.922 27.0625 120.18 26.7539 120.367 26.3711C120.555 25.9883 120.648 25.5117 120.648 24.9414C120.648 24.4805 120.586 24.0586 120.461 23.6758C120.336 23.293 120.148 22.9648 119.898 22.6914C119.656 22.418 119.355 22.207 118.996 22.0586C118.637 21.9023 118.219 21.8242 117.742 21.8242C117.297 21.8242 116.895 21.9062 116.535 22.0703C116.184 22.2344 115.871 22.457 115.598 22.7383C115.332 23.0117 115.102 23.332 114.906 23.6992C114.719 24.0664 114.562 24.4492 114.438 24.8477C114.312 25.2461 114.223 25.6484 114.168 26.0547C114.113 26.4609 114.086 26.8438 114.086 27.2031C114.086 27.2656 114.086 27.3281 114.086 27.3906C114.086 27.4531 114.09 27.5156 114.098 27.5781ZM123.859 24.9062C123.859 25.4609 123.77 25.957 123.59 26.3945C123.41 26.8242 123.164 27.2031 122.852 27.5312C122.547 27.8594 122.191 28.1367 121.785 28.3633C121.379 28.5898 120.945 28.7773 120.484 28.9258C120.023 29.0664 119.547 29.168 119.055 29.2305C118.57 29.293 118.098 29.3242 117.637 29.3242C117.051 29.3242 116.473 29.2852 115.902 29.207C115.332 29.1211 114.77 28.9883 114.215 28.8086C114.301 29.3242 114.438 29.8164 114.625 30.2852C114.812 30.7461 115.062 31.1523 115.375 31.5039C115.688 31.8477 116.07 32.1211 116.523 32.3242C116.984 32.5273 117.527 32.6289 118.152 32.6289C118.566 32.6289 118.961 32.5664 119.336 32.4414C119.711 32.3164 120.055 32.1406 120.367 31.9141C120.68 31.6875 120.953 31.418 121.188 31.1055C121.43 30.793 121.625 30.4453 121.773 30.0625L123.484 30.6953C123.227 31.3125 122.871 31.8477 122.418 32.3008C121.973 32.7461 121.465 33.1172 120.895 33.4141C120.332 33.7031 119.73 33.918 119.09 34.0586C118.457 34.1992 117.828 34.2695 117.203 34.2695C116.172 34.2695 115.219 34.0977 114.344 33.7539C113.469 33.4023 112.715 32.9141 112.082 32.2891C111.449 31.6641 110.953 30.918 110.594 30.0508C110.234 29.1836 110.055 28.2344 110.055 27.2031C110.055 26.1719 110.234 25.2227 110.594 24.3555C110.953 23.4883 111.449 22.7422 112.082 22.1172C112.715 21.4922 113.469 21.0078 114.344 20.6641C115.219 20.3125 116.172 20.1367 117.203 20.1367C117.703 20.1367 118.215 20.1719 118.738 20.2422C119.262 20.3125 119.77 20.4258 120.262 20.582C120.754 20.7305 121.219 20.9258 121.656 21.168C122.094 21.4102 122.473 21.7109 122.793 22.0703C123.121 22.4219 123.379 22.832 123.566 23.3008C123.762 23.7695 123.859 24.3047 123.859 24.9062ZM130.293 34H126.332V14.2305H127.855L130.293 18.3438V34ZM147.227 34H143.266V32.3828C142.797 33.0234 142.23 33.5 141.566 33.8125C140.91 34.1172 140.188 34.2695 139.398 34.2695C138.367 34.2695 137.445 34.0859 136.633 33.7188C135.82 33.3516 135.133 32.8516 134.57 32.2188C134.008 31.5781 133.578 30.8281 133.281 29.9688C132.984 29.1094 132.836 28.1875 132.836 27.2031C132.836 26.2188 132.984 25.2969 133.281 24.4375C133.578 23.5781 134.008 22.832 134.57 22.1992C135.133 21.5586 135.82 21.0547 136.633 20.6875C137.445 20.3203 138.367 20.1367 139.398 20.1367C139.922 20.1367 140.418 20.2148 140.887 20.3711C141.363 20.5273 141.797 20.75 142.188 21.0391C142.586 21.3203 142.934 21.6641 143.23 22.0703C143.535 22.4688 143.773 22.9141 143.945 23.4062L145.703 20.4648H147.227V34ZM143.242 27.2031C143.242 26.8516 143.223 26.4805 143.184 26.0898C143.152 25.6992 143.094 25.3125 143.008 24.9297C142.922 24.5469 142.801 24.1836 142.645 23.8398C142.496 23.4883 142.301 23.1797 142.059 22.9141C141.824 22.6406 141.539 22.4258 141.203 22.2695C140.867 22.1133 140.477 22.0352 140.031 22.0352C139.586 22.0352 139.199 22.1172 138.871 22.2812C138.543 22.4375 138.262 22.6523 138.027 22.9258C137.793 23.1914 137.598 23.5 137.441 23.8516C137.293 24.2031 137.176 24.5703 137.09 24.9531C137.004 25.3359 136.941 25.7227 136.902 26.1133C136.871 26.4961 136.855 26.8594 136.855 27.2031C136.855 27.5469 136.871 27.9141 136.902 28.3047C136.941 28.6953 137.004 29.082 137.09 29.4648C137.176 29.8477 137.293 30.2148 137.441 30.5664C137.598 30.918 137.793 31.2305 138.027 31.5039C138.262 31.7695 138.543 31.9844 138.871 32.1484C139.199 32.3047 139.586 32.3828 140.031 32.3828C140.438 32.3828 140.797 32.3008 141.109 32.1367C141.43 31.9648 141.707 31.7383 141.941 31.457C142.184 31.1758 142.387 30.8555 142.551 30.4961C142.715 30.1367 142.848 29.7656 142.949 29.3828C143.051 29 143.125 28.6211 143.172 28.2461C143.219 27.8633 143.242 27.5156 143.242 27.2031ZM164.383 26.2422C164.383 27.1562 164.27 28.1094 164.043 29.1016C163.824 30.0938 163.516 31.0664 163.117 32.0195C162.719 32.9727 162.242 33.8672 161.688 34.7031C161.133 35.5469 160.523 36.2734 159.859 36.8828L158.371 36.0742C158.582 35.6836 158.781 35.2461 158.969 34.7617C159.156 34.2773 159.324 33.7656 159.473 33.2266C159.629 32.6797 159.766 32.1172 159.883 31.5391C160.008 30.9609 160.109 30.3906 160.188 29.8281C160.273 29.2578 160.336 28.707 160.375 28.1758C160.422 27.6367 160.445 27.1367 160.445 26.6758C160.445 26.3711 160.434 26.0469 160.41 25.7031C160.387 25.3516 160.336 25.0039 160.258 24.6602C160.188 24.3086 160.09 23.9727 159.965 23.6523C159.84 23.332 159.672 23.0508 159.461 22.8086C159.258 22.5664 159.008 22.3711 158.711 22.2227C158.422 22.0742 158.078 22 157.68 22C157.289 22 156.941 22.0898 156.637 22.2695C156.332 22.4414 156.062 22.6719 155.828 22.9609C155.594 23.2422 155.391 23.5664 155.219 23.9336C155.055 24.3008 154.918 24.6797 154.809 25.0703C154.707 25.4531 154.633 25.832 154.586 26.207C154.539 26.582 154.516 26.918 154.516 27.2148V34H150.543V20.4648H152.066L153.883 23.6172C154.102 23.0938 154.375 22.6172 154.703 22.1875C155.031 21.7578 155.402 21.3906 155.816 21.0859C156.23 20.7812 156.688 20.5469 157.188 20.3828C157.695 20.2188 158.242 20.1367 158.828 20.1367C159.766 20.1367 160.582 20.2891 161.277 20.5938C161.973 20.8984 162.551 21.3242 163.012 21.8711C163.473 22.4102 163.816 23.0547 164.043 23.8047C164.27 24.5469 164.383 25.3594 164.383 26.2422ZM179.488 23.8164L177.777 24.4961C177.504 23.6367 177.047 22.9766 176.406 22.5156C175.766 22.0547 174.996 21.8242 174.098 21.8242C173.613 21.8242 173.18 21.9023 172.797 22.0586C172.422 22.207 172.09 22.4141 171.801 22.6797C171.52 22.9453 171.277 23.2539 171.074 23.6055C170.879 23.957 170.719 24.332 170.594 24.7305C170.469 25.1289 170.379 25.543 170.324 25.9727C170.27 26.3945 170.242 26.8047 170.242 27.2031C170.242 27.6328 170.266 28.0664 170.312 28.5039C170.359 28.9414 170.438 29.3633 170.547 29.7695C170.664 30.168 170.816 30.543 171.004 30.8945C171.191 31.2383 171.426 31.5391 171.707 31.7969C171.996 32.0547 172.336 32.2578 172.727 32.4062C173.125 32.5547 173.582 32.6289 174.098 32.6289C174.512 32.6289 174.906 32.5664 175.281 32.4414C175.656 32.3164 176 32.1406 176.312 31.9141C176.625 31.6875 176.902 31.418 177.145 31.1055C177.387 30.793 177.578 30.4453 177.719 30.0625L179.441 30.6953C179.184 31.3125 178.84 31.8477 178.41 32.3008C177.988 32.7461 177.508 33.1172 176.969 33.4141C176.43 33.7031 175.852 33.918 175.234 34.0586C174.617 34.1992 173.992 34.2695 173.359 34.2695C172.336 34.2695 171.387 34.0977 170.512 33.7539C169.637 33.4023 168.879 32.9141 168.238 32.2891C167.605 31.6562 167.109 30.9102 166.75 30.0508C166.391 29.1836 166.211 28.2344 166.211 27.2031C166.211 26.1641 166.387 25.2109 166.738 24.3438C167.098 23.4766 167.594 22.7305 168.227 22.1055C168.859 21.4805 169.613 20.9961 170.488 20.6523C171.363 20.3086 172.32 20.1367 173.359 20.1367C174.016 20.1367 174.656 20.2109 175.281 20.3594C175.906 20.5 176.484 20.7227 177.016 21.0273C177.555 21.3242 178.035 21.7031 178.457 22.1641C178.887 22.625 179.23 23.1758 179.488 23.8164ZM185.09 27.5781C185.574 27.6875 186.059 27.7734 186.543 27.8359C187.027 27.8984 187.516 27.9297 188.008 27.9297C188.523 27.9297 189 27.8828 189.438 27.7891C189.883 27.6875 190.266 27.5234 190.586 27.2969C190.914 27.0625 191.172 26.7539 191.359 26.3711C191.547 25.9883 191.641 25.5117 191.641 24.9414C191.641 24.4805 191.578 24.0586 191.453 23.6758C191.328 23.293 191.141 22.9648 190.891 22.6914C190.648 22.418 190.348 22.207 189.988 22.0586C189.629 21.9023 189.211 21.8242 188.734 21.8242C188.289 21.8242 187.887 21.9062 187.527 22.0703C187.176 22.2344 186.863 22.457 186.59 22.7383C186.324 23.0117 186.094 23.332 185.898 23.6992C185.711 24.0664 185.555 24.4492 185.43 24.8477C185.305 25.2461 185.215 25.6484 185.16 26.0547C185.105 26.4609 185.078 26.8438 185.078 27.2031C185.078 27.2656 185.078 27.3281 185.078 27.3906C185.078 27.4531 185.082 27.5156 185.09 27.5781ZM194.852 24.9062C194.852 25.4609 194.762 25.957 194.582 26.3945C194.402 26.8242 194.156 27.2031 193.844 27.5312C193.539 27.8594 193.184 28.1367 192.777 28.3633C192.371 28.5898 191.938 28.7773 191.477 28.9258C191.016 29.0664 190.539 29.168 190.047 29.2305C189.562 29.293 189.09 29.3242 188.629 29.3242C188.043 29.3242 187.465 29.2852 186.895 29.207C186.324 29.1211 185.762 28.9883 185.207 28.8086C185.293 29.3242 185.43 29.8164 185.617 30.2852C185.805 30.7461 186.055 31.1523 186.367 31.5039C186.68 31.8477 187.062 32.1211 187.516 32.3242C187.977 32.5273 188.52 32.6289 189.145 32.6289C189.559 32.6289 189.953 32.5664 190.328 32.4414C190.703 32.3164 191.047 32.1406 191.359 31.9141C191.672 31.6875 191.945 31.418 192.18 31.1055C192.422 30.793 192.617 30.4453 192.766 30.0625L194.477 30.6953C194.219 31.3125 193.863 31.8477 193.41 32.3008C192.965 32.7461 192.457 33.1172 191.887 33.4141C191.324 33.7031 190.723 33.918 190.082 34.0586C189.449 34.1992 188.82 34.2695 188.195 34.2695C187.164 34.2695 186.211 34.0977 185.336 33.7539C184.461 33.4023 183.707 32.9141 183.074 32.2891C182.441 31.6641 181.945 30.918 181.586 30.0508C181.227 29.1836 181.047 28.2344 181.047 27.2031C181.047 26.1719 181.227 25.2227 181.586 24.3555C181.945 23.4883 182.441 22.7422 183.074 22.1172C183.707 21.4922 184.461 21.0078 185.336 20.6641C186.211 20.3125 187.164 20.1367 188.195 20.1367C188.695 20.1367 189.207 20.1719 189.73 20.2422C190.254 20.3125 190.762 20.4258 191.254 20.582C191.746 20.7305 192.211 20.9258 192.648 21.168C193.086 21.4102 193.465 21.7109 193.785 22.0703C194.113 22.4219 194.371 22.832 194.559 23.3008C194.754 23.7695 194.852 24.3047 194.852 24.9062ZM73.5625 58H68.9102V41.125H78.0273C78.8164 41.125 79.5703 41.2305 80.2891 41.4414C81.0156 41.6523 81.6562 41.9727 82.2109 42.4023C82.7656 42.8242 83.207 43.3594 83.5352 44.0078C83.8711 44.6484 84.0391 45.4023 84.0391 46.2695C84.0391 46.8164 83.9609 47.332 83.8047 47.8164C83.6484 48.293 83.4297 48.7305 83.1484 49.1289C82.875 49.5273 82.5508 49.8867 82.1758 50.207C81.8008 50.5273 81.3906 50.7969 80.9453 51.0156C80.5 51.2344 80.0273 51.4023 79.5273 51.5195C79.0352 51.6367 78.5352 51.6953 78.0273 51.6953H73.5625V58ZM79.3281 46.2695C79.3281 45.1836 79.0508 44.332 78.4961 43.7148C77.9492 43.0898 77.1211 42.7773 76.0117 42.7773H73.5625V50.1016H76.0117C76.6055 50.1016 77.1094 50.0078 77.5234 49.8203C77.9453 49.625 78.2891 49.3555 78.5547 49.0117C78.8203 48.668 79.0156 48.2656 79.1406 47.8047C79.2656 47.3359 79.3281 46.8242 79.3281 46.2695ZM97.5742 45.6602L95.3477 49.3516C95.2539 49.0391 95.1328 48.6875 94.9844 48.2969C94.8359 47.9062 94.6523 47.543 94.4336 47.207C94.2148 46.8633 93.9531 46.5781 93.6484 46.3516C93.3438 46.1172 92.9922 46 92.5938 46C92.2266 46 91.9062 46.0938 91.6328 46.2812C91.3672 46.4688 91.1406 46.7148 90.9531 47.0195C90.7656 47.3164 90.6094 47.6562 90.4844 48.0391C90.3672 48.4141 90.2734 48.7969 90.2031 49.1875C90.1406 49.5703 90.0977 49.9414 90.0742 50.3008C90.0508 50.6523 90.0391 50.957 90.0391 51.2148V58H86.0664V44.4648H87.5898L89.1953 47.6172C89.4141 47.1094 89.6641 46.6445 89.9453 46.2227C90.2266 45.793 90.5508 45.4258 90.918 45.1211C91.2852 44.8086 91.6992 44.5664 92.1602 44.3945C92.6289 44.2227 93.1562 44.1367 93.7422 44.1367C94.0469 44.1367 94.3867 44.1641 94.7617 44.2188C95.1367 44.2656 95.5039 44.3516 95.8633 44.4766C96.2227 44.5938 96.5547 44.75 96.8594 44.9453C97.1641 45.1406 97.4023 45.3789 97.5742 45.6602ZM113.184 51.2031C113.184 51.9062 113.09 52.5664 112.902 53.1836C112.715 53.8008 112.453 54.3711 112.117 54.8945C111.789 55.418 111.391 55.8906 110.922 56.3125C110.453 56.7266 109.938 57.0781 109.375 57.3672C108.82 57.6562 108.223 57.8789 107.582 58.0352C106.949 58.1914 106.297 58.2695 105.625 58.2695C104.953 58.2695 104.301 58.1914 103.668 58.0352C103.035 57.8789 102.438 57.6562 101.875 57.3672C101.32 57.0781 100.809 56.7266 100.34 56.3125C99.8711 55.8906 99.4688 55.418 99.1328 54.8945C98.8047 54.3711 98.5469 53.8008 98.3594 53.1836C98.1719 52.5586 98.0781 51.8984 98.0781 51.2031C98.0781 50.5078 98.1719 49.8516 98.3594 49.2344C98.5469 48.6094 98.8047 48.0352 99.1328 47.5117C99.4688 46.9883 99.8711 46.5195 100.34 46.1055C100.809 45.6836 101.32 45.3281 101.875 45.0391C102.438 44.75 103.035 44.5273 103.668 44.3711C104.301 44.2148 104.953 44.1367 105.625 44.1367C106.297 44.1367 106.949 44.2148 107.582 44.3711C108.223 44.5273 108.82 44.75 109.375 45.0391C109.938 45.3281 110.453 45.6836 110.922 46.1055C111.391 46.5195 111.789 46.9883 112.117 47.5117C112.453 48.0352 112.715 48.6094 112.902 49.2344C113.09 49.8516 113.184 50.5078 113.184 51.2031ZM109.152 51.2031C109.152 50.8281 109.129 50.4336 109.082 50.0195C109.043 49.5977 108.973 49.1875 108.871 48.7891C108.77 48.3828 108.629 47.9961 108.449 47.6289C108.277 47.2539 108.062 46.9297 107.805 46.6562C107.547 46.375 107.238 46.1523 106.879 45.9883C106.52 45.8164 106.102 45.7305 105.625 45.7305C105.172 45.7305 104.77 45.8164 104.418 45.9883C104.066 46.1602 103.758 46.3906 103.492 46.6797C103.234 46.9609 103.016 47.2891 102.836 47.6641C102.664 48.0391 102.523 48.4297 102.414 48.8359C102.305 49.2344 102.227 49.6406 102.18 50.0547C102.133 50.4609 102.109 50.8438 102.109 51.2031C102.109 51.5625 102.133 51.9492 102.18 52.3633C102.227 52.7695 102.305 53.1758 102.414 53.582C102.523 53.9883 102.664 54.3789 102.836 54.7539C103.016 55.1211 103.234 55.4492 103.492 55.7383C103.758 56.0195 104.066 56.2461 104.418 56.418C104.77 56.5898 105.172 56.6758 105.625 56.6758C106.094 56.6758 106.508 56.5938 106.867 56.4297C107.227 56.2578 107.535 56.0312 107.793 55.75C108.059 55.4688 108.277 55.1445 108.449 54.7773C108.621 54.4102 108.758 54.0234 108.859 53.6172C108.969 53.2109 109.043 52.8008 109.082 52.3867C109.129 51.9727 109.152 51.5781 109.152 51.2031Z" fill="white"/>
<path d="M1.70898 61V18.6389H14.6978V61H1.70898Z" fill="white"/>
<path d="M18.4577 30.1611V18.6389H59.4749V30.1611H45.8025V61H32.1301V30.1611H18.4577Z" fill="white"/>
<path d="M10.8853 7.34892V11.4375H7.625C5.51941 11.4375 3.8125 9.73059 3.8125 7.625V7.34892C3.8125 5.39581 5.39581 3.8125 7.34892 3.8125C9.30203 3.8125 10.8853 5.39581 10.8853 7.34892Z" stroke="white" stroke-width="7.625"/>
</svg>
