<svg width="61" height="62" viewBox="0 0 61 62" fill="none" xmlns="http://www.w3.org/2000/svg">
<rect x="1.45142" y="0.5625" width="58.875" height="58.875" rx="14.4375" stroke="#2E2BD0" stroke-width="1.125"/>
<path d="M32.7639 21.1875V26.625H37.6389C38.0139 26.625 38.2014 27 38.2014 27.375L37.4514 30.9375C37.4514 31.125 37.0764 31.3125 36.8889 31.3125H32.7639V45H27.1389V31.5H23.9514C23.5764 31.5 23.3889 31.3125 23.3889 30.9375V27.375C23.3889 27 23.5764 26.8125 23.9514 26.8125H27.1389V20.625C27.1389 17.4375 29.5764 15 32.7639 15H37.8264C38.2014 15 38.3889 15.1875 38.3889 15.5625V20.0625C38.3889 20.4375 38.2014 20.625 37.8264 20.625H33.3264C32.9514 20.625 32.7639 20.8125 32.7639 21.1875Z" stroke="#2E2BD0" stroke-width="1.125" stroke-miterlimit="10" stroke-linecap="round"/>
</svg>
