<svg width="59" height="62" viewBox="0 0 59 62" fill="none" xmlns="http://www.w3.org/2000/svg">
<rect x="0.895844" y="0.5625" width="57.5417" height="60.3838" rx="14.4375" stroke="#2E2BD0" stroke-width="1.125"/>
<path d="M23.4334 42.2871H19.7667V26.9099H23.4334V42.2871Z" stroke="#2E2BD0" stroke-width="1.125" stroke-miterlimit="10" stroke-linecap="round" stroke-linejoin="round"/>
<path d="M23.4333 21.1435C23.4333 22.2051 22.6125 23.0657 21.6 23.0657C20.5875 23.0657 19.7667 22.2051 19.7667 21.1435C19.7667 20.0819 20.5875 19.2214 21.6 19.2214C22.6125 19.2214 23.4333 20.0819 23.4333 21.1435Z" stroke="#2E2BD0" stroke-width="1.125" stroke-miterlimit="10" stroke-linecap="round" stroke-linejoin="round"/>
<path d="M30.7667 33.6374C30.7667 32.0451 31.9979 30.7542 33.5167 30.7542C35.0355 30.7542 36.2667 32.0451 36.2667 33.6374V42.2871H39.9333V31.9422C39.9333 31.1609 39.7598 30.3904 39.4266 29.6917C37.8022 26.2855 33.3417 26.1323 31.1942 28.3838L30.7667 28.8321V26.9099H27.1V42.2871H30.7667V33.6374Z" stroke="#2E2BD0" stroke-width="1.125" stroke-miterlimit="10" stroke-linecap="round" stroke-linejoin="round"/>
</svg>
