<svg width="61" height="62" viewBox="0 0 61 62" fill="none" xmlns="http://www.w3.org/2000/svg">
<rect x="1.00696" y="0.5625" width="58.875" height="58.875" rx="14.4375" stroke="#2E2BD0" stroke-width="1.125"/>
<path d="M20.882 46.125C23.6945 47.8125 27.0695 48.75 30.4445 48.75C40.757 48.75 49.1945 40.3125 49.1945 30C49.1945 19.6875 40.757 11.25 30.4445 11.25C20.132 11.25 11.6945 19.6875 11.6945 30C11.6945 33.375 12.632 36.5625 14.132 39.375L12.0248 47.4795C11.8787 48.0412 12.3987 48.5488 12.9567 48.3894L20.882 46.125Z" stroke="#2E2BD0" stroke-width="1.125" stroke-miterlimit="10" stroke-linecap="round" stroke-linejoin="round"/>
<path d="M38.882 35.3409C38.882 35.6447 38.8144 35.9569 38.6707 36.2606C38.5271 36.5644 38.3411 36.8513 38.0961 37.1213C37.682 37.5769 37.2257 37.9059 36.7103 38.1169C36.2033 38.3278 35.654 38.4375 35.0625 38.4375C34.2006 38.4375 33.2795 38.235 32.3077 37.8216C31.336 37.4081 30.3642 36.8513 29.4009 36.1509C28.4291 35.4422 27.508 34.6575 26.6292 33.7884C25.7588 32.9109 24.973 31.9913 24.2716 31.0294C23.5787 30.0675 23.021 29.1056 22.6154 28.1522C22.2098 27.1903 22.007 26.2706 22.007 25.3931C22.007 24.8194 22.1084 24.2709 22.3112 23.7647C22.514 23.25 22.8351 22.7775 23.2829 22.3556C23.8237 21.8241 24.4153 21.5625 25.0406 21.5625C25.2772 21.5625 25.5138 21.6131 25.725 21.7144C25.9447 21.8156 26.1391 21.9675 26.2912 22.1869L28.2516 24.9459C28.4037 25.1569 28.5136 25.3509 28.5896 25.5366C28.6657 25.7138 28.7079 25.8909 28.7079 26.0513C28.7079 26.2538 28.6488 26.4562 28.5305 26.6503C28.4206 26.8444 28.2601 27.0469 28.0573 27.2494L27.4151 27.9159C27.3221 28.0087 27.2799 28.1184 27.2799 28.2534C27.2799 28.3209 27.2883 28.38 27.3052 28.4475C27.3306 28.515 27.3559 28.5656 27.3728 28.6162C27.5249 28.8947 27.7869 29.2575 28.1587 29.6963C28.5389 30.135 28.9446 30.5822 29.384 31.0294C29.8403 31.4766 30.2797 31.89 30.7275 32.2697C31.1669 32.6409 31.5303 32.8941 31.8176 33.0459C31.8599 33.0628 31.9106 33.0881 31.9697 33.1134C32.0373 33.1387 32.1049 33.1472 32.181 33.1472C32.3246 33.1472 32.4345 33.0966 32.5274 33.0038L33.1696 32.3709C33.3809 32.16 33.5837 31.9997 33.7781 31.8984C33.9724 31.7803 34.1668 31.7212 34.378 31.7212C34.5386 31.7212 34.7076 31.755 34.8935 31.8309C35.0794 31.9069 35.2737 32.0166 35.485 32.16L38.282 34.1428C38.5017 34.2947 38.6538 34.4719 38.7468 34.6828C38.8313 34.8937 38.882 35.1047 38.882 35.3409Z" stroke="#2E2BD0" stroke-width="1.125" stroke-miterlimit="10"/>
</svg>
